<?xml version="1.0" standalone="no"?>
<!DOCTYPE svg PUBLIC "-//W3C//DTD SVG 20010904//EN"
 "http://www.w3.org/TR/2001/REC-SVG-20010904/DTD/svg10.dtd">
<svg version="1.0" xmlns="http://www.w3.org/2000/svg"
 width="225.000000pt" height="225.000000pt" viewBox="0 0 225.000000 225.000000"
 preserveAspectRatio="xMidYMid meet">

<g transform="translate(0.000000,225.000000) scale(0.100000,-0.100000)"
fill="#000000" stroke="none">
<path d="M745 2035 c-45 -23 -48 -41 -5 -37 20 2 30 -2 33 -15 3 -12 5 -8 6
10 1 19 -4 27 -16 28 -15 0 -15 2 2 9 28 12 56 11 30 -1 -18 -9 -18 -9 4 -5
36 7 68 -13 75 -46 10 -52 7 -216 -6 -245 -6 -15 -29 -49 -50 -75 -43 -53 -45
-60 -21 -79 11 -10 14 -10 9 -1 -8 14 40 17 62 4 40 -26 44 -255 6 -376 -4
-11 -2 -16 4 -12 6 3 12 0 15 -6 2 -7 10 5 18 27 10 28 14 84 13 184 l0 144
-32 28 c-32 29 -28 38 8 19 11 -6 24 -29 30 -53 18 -70 43 -109 88 -135 21
-12 22 -11 17 10 -3 13 -7 33 -8 45 0 12 -3 20 -6 17 -3 -2 -19 10 -37 27
l-32 31 25 37 25 36 -44 37 c-24 21 -46 38 -50 38 -3 0 -21 -18 -38 -40 -17
-22 -36 -40 -42 -40 -5 0 5 18 23 41 17 22 38 57 45 77 16 45 18 212 3 265
-11 42 -47 71 -74 61 -12 -5 -16 -4 -11 4 10 17 -25 11 -69 -13z"/>
<path d="M1314 2035 c-46 -27 -61 -50 -38 -59 8 -3 14 -18 15 -33 0 -15 15
-59 34 -98 l33 -70 1 143 c1 78 0 142 -1 142 -2 0 -22 -11 -44 -25z"/>
<path d="M1377 2053 c-4 -3 -7 -36 -7 -71 0 -78 8 -79 11 -2 1 30 6 61 12 68
10 13 -4 18 -16 5z"/>
<path d="M797 2003 c-4 -3 -7 -13 -7 -22 1 -13 3 -13 11 2 11 19 8 33 -4 20z"/>
<path d="M931 1924 c12 -56 28 -99 45 -121 18 -24 27 -50 30 -85 6 -93 14 -62
14 56 0 85 -4 125 -15 146 -9 17 -18 30 -21 30 -3 0 -2 -6 2 -12 4 -7 4 -10
-1 -6 -4 4 -13 17 -19 29 -6 12 -21 28 -33 36 l-21 14 19 -87z"/>
<path d="M664 1987 c-10 -6 -21 -13 -24 -17 -3 -4 -12 -10 -20 -14 -8 -3 -5
-4 8 -2 17 3 22 1 18 -9 -3 -9 0 -12 10 -8 8 3 13 12 12 21 -2 8 4 17 12 19 9
3 11 1 5 -4 -21 -17 -13 -42 16 -48 42 -9 36 -21 -19 -36 -27 -6 -49 -17 -49
-24 0 -9 6 -9 25 1 14 7 38 10 54 7 27 -5 28 -4 28 35 0 23 5 43 13 45 16 7
-13 29 -30 22 -7 -2 -13 0 -13 4 0 15 -25 19 -46 8z"/>
<path d="M1550 1940 c8 -5 20 -10 25 -10 6 0 3 5 -5 10 -8 5 -19 10 -25 10 -5
0 -3 -5 5 -10z"/>
<path d="M562 1927 c-12 -7 -19 -17 -15 -22 4 -4 0 -5 -9 -2 -10 4 -18 2 -18
-4 0 -16 47 -2 70 21 23 23 7 26 -28 7z"/>
<path d="M1392 1905 c0 -16 2 -22 5 -12 2 9 2 23 0 30 -3 6 -5 -1 -5 -18z"/>
<path d="M1599 1916 c8 -9 10 -16 5 -16 -5 0 11 -12 36 -27 25 -15 48 -27 52
-25 4 1 5 -5 2 -12 -3 -9 3 -17 15 -21 25 -8 27 -20 6 -29 -28 -10 -15 -66 20
-88 16 -10 36 -16 43 -13 7 3 11 1 8 -4 -7 -12 59 -62 69 -53 5 4 6 0 3 -8 -3
-9 0 -24 8 -34 18 -25 24 -74 32 -257 7 -153 7 -156 -16 -180 l-23 -24 17 34
c15 31 16 50 6 203 -13 201 -26 239 -95 287 -25 17 -48 31 -50 31 -3 0 -51 27
-107 60 -56 33 -103 60 -105 60 -2 0 -1 -9 2 -20 3 -12 54 -48 133 -94 182
-107 189 -120 192 -361 2 -196 2 -199 -26 -179 -11 8 -27 14 -36 14 -8 0 -36
11 -61 23 -26 13 -45 18 -43 12 3 -6 29 -19 60 -30 36 -12 50 -21 42 -27 -9
-5 -6 -8 9 -8 14 0 27 -10 35 -27 7 -16 23 -29 36 -31 14 -2 22 -10 22 -22 0
-10 7 -26 16 -34 8 -9 12 -16 8 -16 -3 0 -1 -6 5 -13 15 -19 3 -28 -28 -22
-26 5 -26 5 -3 -5 13 -5 28 -8 33 -4 5 3 9 0 9 -5 0 -25 -64 -4 -399 130 -83
33 -91 34 -91 16 0 -17 411 -170 452 -169 35 1 68 27 68 53 0 10 5 21 11 25 9
5 10 69 6 238 -6 229 -19 358 -38 364 -5 2 -7 8 -4 13 10 15 -69 148 -81 136
-3 -2 -17 7 -33 22 -15 14 -55 40 -89 57 -33 18 -58 35 -54 38 3 4 -2 4 -12 0
-13 -5 -17 -4 -13 3 4 6 -9 21 -30 33 -24 14 -32 16 -24 6z m188 -131 c0 -8
-4 -12 -9 -9 -5 3 -6 10 -3 15 9 13 12 11 12 -6z m141 -236 c-3 -8 -7 -3 -11
10 -4 17 -3 21 5 13 5 -5 8 -16 6 -23z m16 -579 c-5 -5 -10 3 -11 18 -1 22 0
24 9 8 6 -10 6 -22 2 -26z"/>
<path d="M670 1910 c0 -5 7 -10 15 -10 8 0 15 5 15 10 0 6 -7 10 -15 10 -8 0
-15 -4 -15 -10z"/>
<path d="M465 1870 c-3 -5 -2 -10 4 -10 5 0 13 5 16 10 3 6 2 10 -4 10 -5 0
-13 -4 -16 -10z"/>
<path d="M1386 1855 c-3 -9 -5 -101 -4 -203 l2 -187 6 200 c3 110 5 201 4 203
-1 2 -4 -4 -8 -13z"/>
<path d="M610 1850 c0 -6 -11 -8 -25 -4 -19 5 -25 2 -25 -10 0 -9 -12 -18 -27
-22 -60 -13 -66 -16 -53 -24 8 -5 9 -13 4 -21 -4 -8 9 -1 29 14 20 15 53 35
72 43 19 8 35 19 35 24 0 6 -2 10 -5 10 -3 0 -5 -5 -5 -10z"/>
<path d="M655 1846 c-101 -44 -272 -170 -220 -162 8 1 18 6 22 11 4 4 2 5 -6
0 -10 -6 -12 -4 -7 4 5 7 10 10 14 7 3 -3 28 7 56 23 184 105 183 104 217 97
37 -7 37 -1 -1 19 -35 18 -36 18 -75 1z"/>
<path d="M416 1835 c-11 -8 -16 -18 -12 -22 3 -4 16 3 29 15 24 25 12 29 -17
7z"/>
<path d="M486 1829 c3 -5 0 -9 -7 -9 -7 0 -10 -2 -7 -5 3 -3 16 -2 28 3 l24 9
-22 5 c-12 4 -20 2 -16 -3z"/>
<path d="M368 1798 c-7 -13 -11 -26 -10 -30 1 -5 -2 -8 -8 -8 -5 0 -14 -10
-21 -21 -9 -17 -8 -20 2 -14 9 6 11 3 6 -9 -4 -10 -3 -15 3 -11 5 3 15 23 21
44 l12 39 33 -14 c42 -18 45 -17 38 1 -4 8 -19 15 -35 15 -21 0 -27 4 -23 15
9 23 -4 18 -18 -7z"/>
<path d="M610 1767 c-136 -75 -144 -81 -125 -97 8 -7 15 -18 15 -25 0 -6 11
-17 24 -24 17 -9 22 -19 19 -35 -4 -15 0 -13 15 11 14 21 46 43 101 70 43 21
82 44 85 51 3 7 3 33 -1 57 -4 32 -10 45 -22 45 -9 0 -59 -24 -111 -53z"/>
<path d="M1576 1801 c-3 -5 1 -11 9 -15 8 -3 15 -1 15 4 0 13 -18 22 -24 11z"/>
<path d="M846 1754 c-4 -14 -5 -28 -3 -31 3 -2 8 8 11 23 4 14 5 28 3 31 -3 2
-8 -8 -11 -23z"/>
<path d="M1670 1770 c-13 -8 -12 -10 3 -10 9 0 17 5 17 10 0 12 -1 12 -20 0z"/>
<path d="M1670 1746 c0 -2 7 -7 16 -10 8 -3 12 -2 9 4 -6 10 -25 14 -25 6z"/>
<path d="M393 1725 c-7 -8 -13 -24 -13 -37 0 -13 -3 -34 -7 -46 -4 -18 -8 -20
-14 -10 -6 9 -9 5 -9 -14 0 -15 -5 -30 -10 -33 -6 -4 -8 -10 -5 -15 3 -5 1
-11 -4 -14 -6 -4 -8 9 -6 30 2 21 -2 49 -7 63 l-11 26 -7 -30 c-4 -16 -8 -41
-8 -55 l0 -25 8 25 c8 24 8 24 9 -7 1 -17 -3 -35 -9 -38 -5 -3 -10 -12 -10
-18 0 -7 4 -6 10 3 5 8 10 12 10 7 0 -14 59 23 71 44 9 17 8 20 -3 17 -7 -3
-13 -10 -13 -15 0 -6 -3 -15 -7 -19 -5 -4 -8 0 -8 9 0 9 9 22 20 29 15 10 20
24 20 60 0 27 5 48 11 48 5 0 7 -5 3 -12 -4 -7 -3 -8 4 -4 6 4 8 14 5 23 -4
10 -2 14 5 9 6 -3 13 -2 17 4 10 15 -28 11 -42 -5z"/>
<path d="M1532 1668 l3 -72 84 -48 84 -49 53 22 c58 24 64 35 37 67 -16 19
-242 152 -257 152 -4 0 -6 -32 -4 -72z"/>
<path d="M813 1705 c4 -5 -3 -19 -15 -32 -12 -13 -17 -23 -11 -23 6 0 18 11
27 24 12 19 13 27 3 32 -6 4 -9 3 -4 -1z"/>
<path d="M358 1673 c5 -21 7 -23 10 -9 2 10 0 22 -6 28 -6 6 -7 0 -4 -19z"/>
<path d="M1241 1529 c-1 -164 -1 -167 21 -172 24 -7 41 3 20 10 -6 3 -10 9 -6
14 8 13 34 -16 34 -37 0 -13 3 -15 11 -7 7 7 1 28 -20 69 -23 46 -33 85 -44
174 l-15 115 -1 -166z"/>
<path d="M407 1648 c-4 -12 -7 -37 -7 -55 0 -28 -6 -35 -52 -60 -49 -27 -73
-53 -48 -53 7 0 36 14 65 32 53 31 53 32 57 86 3 59 -5 88 -15 50z"/>
<path d="M755 1630 c-3 -5 -1 -18 5 -27 10 -16 11 -16 7 4 -3 12 0 24 7 27 8
3 8 5 -1 5 -6 1 -15 -3 -18 -9z"/>
<path d="M595 1570 c-3 -6 1 -7 9 -4 18 7 21 14 7 14 -6 0 -13 -4 -16 -10z"/>
<path d="M530 1535 c-14 -8 -21 -14 -16 -15 5 0 3 -6 -3 -13 -6 -8 -7 -17 -3
-22 4 -4 -10 3 -31 17 l-37 25 -69 -36 c-38 -19 -68 -38 -66 -41 2 -3 23 -16
48 -29 l45 -24 52 27 c42 22 55 25 61 14 5 -8 7 1 6 24 -3 32 0 38 21 43 15 4
22 11 18 20 -3 9 0 12 10 8 7 -3 14 0 14 6 0 15 -20 13 -50 -4z"/>
<path d="M982 1520 c7 -11 19 -22 28 -25 8 -4 4 5 -9 19 -29 31 -36 33 -19 6z"/>
<path d="M690 1526 c0 -2 9 -6 20 -9 11 -3 18 -1 14 4 -5 9 -34 13 -34 5z"/>
<path d="M631 1502 c-7 -12 -17 -20 -23 -16 -7 4 -8 3 -4 -4 5 -9 16 -8 39 4
37 19 50 30 25 21 -9 -3 -18 -1 -21 6 -2 7 -9 2 -16 -11z"/>
<path d="M1758 1488 l-48 -20 0 -52 c0 -28 4 -46 8 -39 13 20 82 46 82 31 0
-7 7 -26 16 -43 11 -21 13 -43 9 -75 -4 -32 -2 -51 9 -65 13 -18 14 -6 10 120
-3 77 -7 146 -10 153 -5 16 -20 14 -76 -10z"/>
<path d="M746 1487 c6 -16 4 -16 -20 -5 -24 10 -37 7 -126 -37 -92 -45 -114
-65 -72 -65 9 0 54 18 100 40 46 22 91 40 102 40 24 0 36 18 21 33 -9 9 -11 8
-5 -6z"/>
<path d="M615 1402 l-99 -48 52 -32 51 -31 60 30 c34 16 65 29 69 29 10 0 14
57 7 81 -9 28 -32 24 -140 -29z"/>
<path d="M940 1303 c0 -21 -4 -55 -9 -76 -7 -29 -5 -46 8 -73 9 -19 20 -32 23
-28 4 3 12 -4 18 -16 9 -16 8 -25 -2 -38 -12 -15 -11 -16 4 -4 9 7 24 34 33
60 19 57 32 168 19 159 -5 -3 -25 8 -43 24 -19 16 -38 29 -42 29 -5 0 -9 -17
-9 -37z"/>
<path d="M740 1296 c0 -7 -9 -26 -21 -42 l-21 -29 26 28 c23 25 35 57 21 57
-3 0 -5 -6 -5 -14z"/>
<path d="M420 1205 c0 -35 4 -66 10 -70 5 -3 6 -13 3 -22 -4 -10 -2 -14 4 -10
6 4 13 1 16 -5 3 -10 7 -10 19 0 9 7 18 9 20 5 3 -4 3 -2 2 5 -2 7 6 12 19 12
12 0 29 5 37 10 11 7 6 8 -17 4 -22 -4 -33 -3 -33 5 0 7 5 9 10 6 13 -8 50 3
50 15 0 4 -9 6 -20 3 -17 -5 -20 0 -20 26 0 30 -1 31 -37 26 -27 -3 -34 -2
-23 5 10 6 11 10 3 10 -7 0 -13 6 -13 14 0 8 -7 16 -15 20 -12 4 -15 -6 -15
-59z"/>
<path d="M360 1244 c-14 -7 -19 -14 -12 -14 8 0 12 -19 13 -57 1 -51 15 -128
18 -97 1 7 10 14 20 17 17 4 18 12 14 73 -6 76 -8 83 -24 67 -6 -6 -10 -31 -8
-56 2 -25 1 -43 -3 -40 -5 2 -8 25 -8 50 0 32 5 50 18 59 22 17 4 16 -28 -2z"/>
<path d="M1393 1200 c0 -25 2 -35 4 -22 2 12 2 32 0 45 -2 12 -4 2 -4 -23z"/>
<path d="M293 1216 c-20 -9 -23 -18 -21 -66 l2 -55 3 46 c3 37 8 48 25 52 12
4 17 10 13 17 -5 9 -1 10 16 5 19 -5 21 -4 9 4 -17 12 -18 12 -47 -3z"/>
<path d="M590 1185 c-24 -14 -23 -14 12 -12 24 1 34 6 31 15 -6 14 -11 14 -43
-3z"/>
<path d="M1837 1181 c-4 -17 -3 -21 5 -13 5 5 8 16 6 23 -3 8 -7 3 -11 -10z"/>
<path d="M1411 1164 c0 -11 3 -14 6 -6 3 7 2 16 -1 19 -3 4 -6 -2 -5 -13z"/>
<path d="M810 1127 c-25 -23 -44 -46 -42 -50 1 -5 -1 -6 -6 -3 -5 3 -94 -27
-198 -66 -104 -39 -201 -71 -216 -72 -43 -2 -20 -16 25 -15 50 0 138 33 116
42 -8 4 -5 5 7 2 12 -3 32 -1 45 4 13 5 17 10 9 11 -12 0 -11 3 3 11 9 5 22 7
27 4 16 -10 133 37 118 47 -8 5 -2 6 17 2 20 -4 26 -3 17 4 -11 7 -11 10 3 15
9 4 13 3 10 -3 -9 -15 1 -12 43 9 43 22 91 70 58 58 -18 -7 -18 -6 -2 18 22
33 19 32 -34 -18z m-140 -97 c-8 -5 -19 -10 -25 -10 -5 0 -3 5 5 10 8 5 20 10
25 10 6 0 3 -5 -5 -10z m-50 -20 c-8 -5 -19 -10 -25 -10 -5 0 -3 5 5 10 8 5
20 10 25 10 6 0 3 -5 -5 -10z"/>
<path d="M1730 1150 c8 -5 20 -10 25 -10 6 0 3 5 -5 10 -8 5 -19 10 -25 10 -5
0 -3 -5 5 -10z"/>
<path d="M845 1090 c-4 -6 -25 -20 -48 -32 -53 -27 -403 -158 -426 -159 -23
-1 79 -49 105 -49 32 0 370 117 427 148 26 14 53 32 59 41 7 9 9 13 4 9 -4 -4
-29 7 -56 23 -53 32 -56 33 -65 19z"/>
<path d="M1295 1046 l-50 -22 100 -60 c55 -32 115 -64 134 -71 35 -12 56 -9
46 7 -8 13 13 22 36 15 17 -6 19 -9 8 -17 -10 -7 -8 -8 8 -3 12 3 43 -1 68
-10 43 -14 53 -14 131 2 46 10 84 20 84 23 0 3 -93 38 -207 79 -236 83 -281
91 -358 57z"/>
<path d="M274 1023 c4 -45 27 -96 34 -75 2 7 -1 18 -6 25 -6 7 -12 27 -15 45
-8 49 -18 52 -13 5z"/>
<path d="M538 1043 c7 -3 16 -2 19 1 4 3 -2 6 -13 5 -11 0 -14 -3 -6 -6z"/>
<path d="M405 1030 c11 -5 27 -9 35 -9 9 0 8 4 -5 9 -11 5 -27 9 -35 9 -9 0
-8 -4 5 -9z"/>
<path d="M505 1030 c17 -7 16 -9 -10 -9 -38 -2 -63 -16 -42 -24 8 -3 18 -3 22
1 4 4 10 7 13 8 4 0 23 4 42 9 34 8 34 9 10 16 -35 10 -60 10 -35 -1z"/>
<path d="M1801 1031 c-10 -7 -7 -9 12 -8 14 1 23 5 20 10 -6 9 -15 9 -32 -2z"/>
<path d="M1728 1023 c7 -3 16 -2 19 1 4 3 -2 6 -13 5 -11 0 -14 -3 -6 -6z"/>
<path d="M1780 1006 c0 -2 7 -7 16 -10 8 -3 12 -2 9 4 -6 10 -25 14 -25 6z"/>
<path d="M1831 994 c0 -11 3 -14 6 -6 3 7 2 16 -1 19 -3 4 -6 -2 -5 -13z"/>
<path d="M399 991 c11 -7 10 -11 -5 -20 -26 -15 -13 -14 26 3 25 10 29 14 15
20 -9 3 -24 6 -33 6 -14 0 -14 -2 -3 -9z"/>
<path d="M330 960 c0 -5 5 -10 10 -10 6 0 10 5 10 10 0 6 -4 10 -10 10 -5 0
-10 -4 -10 -10z"/>
<path d="M1084 888 c-16 -5 -171 -44 -344 -88 -173 -44 -335 -86 -359 -94
l-45 -13 43 -7 c23 -3 48 -3 54 0 7 4 8 3 4 -2 -5 -5 53 -20 134 -36 110 -21
152 -25 183 -18 50 11 60 5 15 -9 -31 -10 -31 -10 -4 -5 17 3 62 8 102 12 39
4 75 10 78 14 3 3 30 0 59 -6 29 -7 61 -9 72 -6 13 5 21 2 26 -9 4 -10 7 0 7
24 2 90 -7 85 170 85 104 0 161 4 168 11 7 7 20 8 30 4 10 -4 56 -9 103 -11
47 -3 90 -7 97 -9 7 -2 15 0 18 6 4 5 3 9 -2 8 -4 -1 -21 3 -36 9 -16 7 -37
12 -47 12 -10 0 -31 5 -47 11 -15 6 -123 36 -239 68 -161 43 -218 55 -240 49z
m544 -145 c-10 -2 -28 -2 -40 0 -13 2 -5 4 17 4 22 1 32 -1 23 -4z m-951 -99
c-3 -3 -12 -4 -19 -1 -8 3 -5 6 6 6 11 1 17 -2 13 -5z m43 -4 c-20 -13 -33
-13 -25 0 3 6 14 10 23 10 15 0 15 -2 2 -10z"/>
<path d="M1748 713 c7 -3 16 -2 19 1 4 3 -2 6 -13 5 -11 0 -14 -3 -6 -6z"/>
<path d="M933 618 c0 -8 14 -14 40 -15 44 -1 38 13 -9 23 -22 4 -31 2 -31 -8z"/>
<path d="M798 603 c7 -3 16 -2 19 1 4 3 -2 6 -13 5 -11 0 -14 -3 -6 -6z"/>
<path d="M850 600 c-12 -8 -11 -10 7 -10 12 0 25 5 28 10 8 13 -15 13 -35 0z"/>
<path d="M920 580 c14 -4 36 -8 50 -8 22 0 22 1 -5 8 -16 4 -39 8 -50 8 -16 0
-15 -2 5 -8z"/>
<path d="M1008 563 c7 -3 16 -2 19 1 4 3 -2 6 -13 5 -11 0 -14 -3 -6 -6z"/>
<path d="M1058 553 c7 -3 16 -2 19 1 4 3 -2 6 -13 5 -11 0 -14 -3 -6 -6z"/>
</g>
</svg>
